# xmcd
#
# Track frame offsets: 
#        150
#        26272
#        46167
#        70842
#        103310
#        123940
#        138375
#        159582
#        183275
#
# Disc length: 2826 seconds
#
# Revision: 8
# Processed by: cddbd v1.5.2PL0 Copyright (c) Steve Scherf et al.
# Submitted via: ExactAudioCopyFreeDBPlugin 1.0
#
DISCID=720b0809
DTITLE=Willie Dixon - Hidden Charms
DYEAR=1988
DGENRE=Blues
TTITLE0=Blues You Can't Loose
TTITLE1=I Don't Trust Myself
TTITLE2=Jungle Swing
TTITLE3=Don't Mess with the Messer
TTITLE4=Study War No More
TTITLE5=I Love the Life I Live (I Live the Life I Love)
TTITLE6=I Cry for You
TTITLE7=Good Advice
TTITLE8=I Do the Job
EXTD=1988 Bug Music/Capitol Records CDP 7 90595 2\n\nRecording: Ocean 
EXTD=Way Studios, Hollywood, CA\nWillie Dixon: songwriter (all tunes),
EXTD=vocals\nLafayette Leake: piano\nRed Callender: bass\nEarl Palmer
EXTD=: drums\nCash McCall: electric guitar, National Steel, harmony vo
EXTD=cals\nT Bone Burnett: dobro\nSugar Blue: harmonica\n\nEntry appen
EXTD=ded: Mike Lempriere  mikel@speakeasy.org  21-Feb-1997\n YEAR: 198
EXTD=8
EXTT0=
EXTT1=
EXTT2=
EXTT3=
EXTT4=
EXTT5=
EXTT6=
EXTT7=
EXTT8=
PLAYORDER=
